<mxfile host="65bd71144e">
    <diagram id="Y2ABCPAn-XlcLLiGmq4C" name="Page-1">
        <mxGraphModel dx="1133" dy="809" grid="1" gridSize="10" guides="1" tooltips="1" connect="1" arrows="1" fold="1" page="1" pageScale="1" pageWidth="827" pageHeight="1169" math="0" shadow="0">
            <root>
                <mxCell id="0"/>
                <mxCell id="1" parent="0"/>
                <mxCell id="31" style="edgeStyle=none;html=1;" edge="1" parent="1" source="24" target="30">
                    <mxGeometry relative="1" as="geometry"/>
                </mxCell>
                <mxCell id="34" style="edgeStyle=none;html=1;" edge="1" parent="1" source="24" target="32">
                    <mxGeometry relative="1" as="geometry"/>
                </mxCell>
                <mxCell id="35" style="edgeStyle=none;html=1;" edge="1" parent="1" source="24" target="33">
                    <mxGeometry relative="1" as="geometry"/>
                </mxCell>
                <mxCell id="24" value="Партия&lt;br&gt;товаров" style="outlineConnect=0;dashed=0;verticalLabelPosition=bottom;verticalAlign=top;align=center;html=1;shape=mxgraph.aws3.batch;fillColor=#F58534;gradientColor=none;" vertex="1" parent="1">
                    <mxGeometry x="330" y="290.6" width="41.13" height="50" as="geometry"/>
                </mxCell>
                <mxCell id="27" style="edgeStyle=none;html=1;" edge="1" parent="1" source="26" target="24">
                    <mxGeometry relative="1" as="geometry">
                        <mxPoint x="440" y="305.74" as="targetPoint"/>
                    </mxGeometry>
                </mxCell>
                <mxCell id="26" value="Производитель&lt;br&gt;PRID" style="shadow=0;dashed=0;html=1;strokeColor=none;fillColor=#4495D1;labelPosition=center;verticalLabelPosition=bottom;verticalAlign=top;align=center;outlineConnect=0;shape=mxgraph.veeam.company_owner;" vertex="1" parent="1">
                    <mxGeometry x="140" y="290.6" width="44.4" height="48.8" as="geometry"/>
                </mxCell>
                <mxCell id="42" style="edgeStyle=none;html=1;entryX=-0.022;entryY=0.5;entryDx=0;entryDy=0;entryPerimeter=0;" edge="1" parent="1" source="30" target="39">
                    <mxGeometry relative="1" as="geometry"/>
                </mxCell>
                <mxCell id="30" value="SENDER_INN&lt;br&gt;&lt;br&gt;" style="shadow=0;dashed=0;html=1;strokeColor=none;fillColor=#4495D1;labelPosition=center;verticalLabelPosition=bottom;verticalAlign=top;align=center;outlineConnect=0;shape=mxgraph.veeam.company_owner;" vertex="1" parent="1">
                    <mxGeometry x="500" y="120.00000000000003" width="44.4" height="48.8" as="geometry"/>
                </mxCell>
                <mxCell id="50" style="edgeStyle=none;html=1;" edge="1" parent="1" source="32" target="30">
                    <mxGeometry relative="1" as="geometry"/>
                </mxCell>
                <mxCell id="32" value="RESEVER_INN&lt;br&gt;SENDER_INN" style="shadow=0;dashed=0;html=1;strokeColor=none;fillColor=#4495D1;labelPosition=center;verticalLabelPosition=bottom;verticalAlign=top;align=center;outlineConnect=0;shape=mxgraph.veeam.company_owner;" vertex="1" parent="1">
                    <mxGeometry x="500" y="291.8" width="44.4" height="48.8" as="geometry"/>
                </mxCell>
                <mxCell id="51" style="edgeStyle=none;html=1;" edge="1" parent="1" source="33" target="30">
                    <mxGeometry relative="1" as="geometry">
                        <Array as="points">
                            <mxPoint x="590" y="390"/>
                        </Array>
                    </mxGeometry>
                </mxCell>
                <mxCell id="33" value="Дистрибьютор&lt;br&gt;SENDER_INN" style="shadow=0;dashed=0;html=1;strokeColor=none;fillColor=#4495D1;labelPosition=center;verticalLabelPosition=bottom;verticalAlign=top;align=center;outlineConnect=0;shape=mxgraph.veeam.company_owner;" vertex="1" parent="1">
                    <mxGeometry x="500" y="450" width="44.4" height="48.8" as="geometry"/>
                </mxCell>
                <mxCell id="48" value="Product Input" style="swimlane;whiteSpace=wrap;html=1;" vertex="1" parent="1">
                    <mxGeometry x="110" y="190" width="300" height="280" as="geometry"/>
                </mxCell>
                <mxCell id="49" value="Product Movement" style="swimlane;whiteSpace=wrap;html=1;" vertex="1" parent="1">
                    <mxGeometry x="260" y="70" width="630" height="470" as="geometry"/>
                </mxCell>
                <mxCell id="52" value="Product Output" style="swimlane;whiteSpace=wrap;html=1;" vertex="1" parent="1">
                    <mxGeometry x="620" y="20" width="530" height="610" as="geometry"/>
                </mxCell>
                <mxCell id="53" value="Потребитель" style="shape=umlActor;verticalLabelPosition=bottom;verticalAlign=top;html=1;outlineConnect=0;" vertex="1" parent="52">
                    <mxGeometry x="430" y="130" width="30" height="60" as="geometry"/>
                </mxCell>
                <mxCell id="56" value="Списание товара" style="image;html=1;image=img/lib/clip_art/general/Ships_Wheel_128x128.png" vertex="1" parent="52">
                    <mxGeometry x="410" y="380" width="80" height="80" as="geometry"/>
                </mxCell>
                <mxCell id="40" value="Точка продажи&lt;br&gt;ID SP" style="shape=mxgraph.signs.travel.barber_shop;html=1;pointerEvents=1;fillColor=#000000;strokeColor=none;verticalLabelPosition=bottom;verticalAlign=top;align=center;" vertex="1" parent="52">
                    <mxGeometry x="200" y="320" width="46.5" height="50" as="geometry"/>
                </mxCell>
                <mxCell id="55" style="edgeStyle=none;html=1;" edge="1" parent="52" source="40" target="53">
                    <mxGeometry relative="1" as="geometry"/>
                </mxCell>
                <mxCell id="41" value="Точка продажи" style="shape=mxgraph.signs.travel.barber_shop;html=1;pointerEvents=1;fillColor=#000000;strokeColor=none;verticalLabelPosition=bottom;verticalAlign=top;align=center;" vertex="1" parent="52">
                    <mxGeometry x="170" y="450" width="46.5" height="50" as="geometry"/>
                </mxCell>
                <mxCell id="57" style="edgeStyle=none;html=1;" edge="1" parent="52" source="41" target="56">
                    <mxGeometry relative="1" as="geometry"/>
                </mxCell>
                <mxCell id="39" value="Точка продажи" style="shape=mxgraph.signs.travel.barber_shop;html=1;pointerEvents=1;fillColor=#000000;strokeColor=none;verticalLabelPosition=bottom;verticalAlign=top;align=center;" vertex="1" parent="52">
                    <mxGeometry x="160" y="130" width="46.5" height="50" as="geometry"/>
                </mxCell>
                <mxCell id="54" value="price" style="edgeStyle=none;html=1;" edge="1" parent="52" source="39" target="53">
                    <mxGeometry relative="1" as="geometry"/>
                </mxCell>
                <mxCell id="72" value="Организация" style="swimlane;whiteSpace=wrap;html=1;" vertex="1" parent="52">
                    <mxGeometry x="143" y="285" width="207" height="255" as="geometry"/>
                </mxCell>
                <mxCell id="45" value="Партия&lt;br&gt;товаров" style="outlineConnect=0;dashed=0;verticalLabelPosition=bottom;verticalAlign=top;align=center;html=1;shape=mxgraph.aws3.batch;fillColor=#F58534;gradientColor=none;" vertex="1" parent="52">
                    <mxGeometry x="50" y="235" width="41.13" height="50" as="geometry"/>
                </mxCell>
                <mxCell id="43" style="edgeStyle=none;html=1;entryX=0.022;entryY=0.412;entryDx=0;entryDy=0;entryPerimeter=0;startArrow=none;" edge="1" parent="52" source="45" target="40">
                    <mxGeometry relative="1" as="geometry"/>
                </mxCell>
                <mxCell id="46" value="Партия&lt;br&gt;товаров" style="outlineConnect=0;dashed=0;verticalLabelPosition=bottom;verticalAlign=top;align=center;html=1;shape=mxgraph.aws3.batch;fillColor=#F58534;gradientColor=none;" vertex="1" parent="52">
                    <mxGeometry x="40" y="350.00000000000006" width="41.13" height="50" as="geometry"/>
                </mxCell>
                <mxCell id="44" style="edgeStyle=none;html=1;entryX=0.473;entryY=0.444;entryDx=0;entryDy=0;entryPerimeter=0;startArrow=none;" edge="1" parent="52" source="46" target="41">
                    <mxGeometry relative="1" as="geometry"/>
                </mxCell>
                <mxCell id="73" value="" style="edgeStyle=none;html=1;entryX=0.022;entryY=0.412;entryDx=0;entryDy=0;entryPerimeter=0;endArrow=none;" edge="1" parent="1" source="30" target="45">
                    <mxGeometry relative="1" as="geometry">
                        <mxPoint x="544.4000000000001" y="160.46181585754778" as="sourcePoint"/>
                        <mxPoint x="821.0230000000001" y="360.5999999999999" as="targetPoint"/>
                    </mxGeometry>
                </mxCell>
                <mxCell id="74" value="" style="edgeStyle=none;html=1;entryX=0.473;entryY=0.444;entryDx=0;entryDy=0;entryPerimeter=0;endArrow=none;" edge="1" parent="1" source="30" target="46">
                    <mxGeometry relative="1" as="geometry">
                        <mxPoint x="542.5306089706728" y="168.79999999999995" as="sourcePoint"/>
                        <mxPoint x="811.9945000000002" y="492.20000000000005" as="targetPoint"/>
                    </mxGeometry>
                </mxCell>
            </root>
        </mxGraphModel>
    </diagram>
</mxfile>